<svg xmlns="http://www.w3.org/2000/svg" width="93" height="91" viewBox="0 0 93 91">
  <path id="Union_2" data-name="Union 2" d="M58.8,90.739c-3.114-1.1-4.032-2.8-4.443-3.982a6.462,6.462,0,0,1-.124-4.364l.954-2.325,1.562-3.029,4.142-7.716,3.59,8.1a14.349,14.349,0,0,1,2.289,6.4A7.11,7.11,0,0,1,64.006,90.1a6.556,6.556,0,0,1-3.463.9A5.352,5.352,0,0,1,58.8,90.739ZM29.568,87.946c-3.116-1.1-4.032-2.8-4.443-3.982A6.472,6.472,0,0,1,25,79.6l.957-2.325,1.562-3.029,4.142-7.716,3.59,8.1a14.349,14.349,0,0,1,2.289,6.4,7.116,7.116,0,0,1-2.757,6.288,6.556,6.556,0,0,1-3.463.9A5.352,5.352,0,0,1,29.568,87.946ZM74.739,73.981c-3.116-1.1-4.032-2.8-4.443-3.982a6.472,6.472,0,0,1-.127-4.364l.957-2.328,1.562-3.027,4.142-7.716,3.587,8.093a14.339,14.339,0,0,1,2.291,6.4,7.124,7.124,0,0,1-2.757,6.29,6.577,6.577,0,0,1-3.466.9A5.366,5.366,0,0,1,74.739,73.981Zm-29.785,0c-3.116-1.1-4.034-2.8-4.446-3.982a6.48,6.48,0,0,1-.124-4.364l.957-2.328L42.9,60.279l4.142-7.716,3.59,8.093a14.349,14.349,0,0,1,2.289,6.4,7.118,7.118,0,0,1-2.757,6.29,6.573,6.573,0,0,1-3.464.9A5.364,5.364,0,0,1,44.954,73.981Zm-31.33,0c-3.114-1.1-4.032-2.8-4.443-3.982a6.462,6.462,0,0,1-.124-4.364l.957-2.328,1.559-3.027,4.142-7.716,3.59,8.093a14.349,14.349,0,0,1,2.289,6.4,7.118,7.118,0,0,1-2.757,6.29,6.577,6.577,0,0,1-3.466.9A5.366,5.366,0,0,1,13.624,73.981ZM8.518,44.695a8.9,8.9,0,0,1-2.8-4.666A14.937,14.937,0,0,1,0,28.177C0,20.14,6.134,13.6,13.677,13.6A13.336,13.336,0,0,1,23.9,18.5a8.884,8.884,0,0,1,2.843-4.885,7.826,7.826,0,0,1,10.544.186A19.6,19.6,0,0,1,44.1,3.9,18.807,18.807,0,0,1,55.617,0a19.144,19.144,0,0,1,17.56,11.673c.222-.01.445-.013.674-.013A19.493,19.493,0,0,1,87.526,44.695Z" transform="translate(0 0)" fill="#fff"/>
</svg>
